<svg xmlns="http://www.w3.org/2000/svg" width="520" height="480" style="background:#fafcfe">
<defs><marker id="arr" viewBox="0 0 10 10" refX="5" refY="5" markerWidth="4" markerHeight="4" orient="auto"><path d="M0,0 L10,5 L0,10 z" fill="#888"/></marker></defs>
<line x1="292.6" y1="70.4" x2="390.6" y2="126.9" stroke="#b0c4de" stroke-width="1.5"/>
<line x1="292.6" y1="70.4" x2="227.4" y2="70.4" stroke="#b0c4de" stroke-width="1.5"/>
<line x1="292.6" y1="70.4" x2="260.0" y2="126.9" stroke="#b0c4de" stroke-width="1.5"/>
<line x1="162.1" y1="183.5" x2="162.1" y2="296.5" stroke="#b0c4de" stroke-width="1.5"/>
<line x1="162.1" y1="183.5" x2="96.8" y2="183.5" stroke="#b0c4de" stroke-width="1.5"/>
<line x1="162.1" y1="183.5" x2="260.0" y2="126.9" stroke="#b0c4de" stroke-width="1.5"/>
<line x1="162.1" y1="296.5" x2="96.8" y2="296.5" stroke="#b0c4de" stroke-width="1.5"/>
<line x1="162.1" y1="296.5" x2="260.0" y2="353.1" stroke="#b0c4de" stroke-width="1.5"/>
<line x1="129.4" y1="126.9" x2="162.1" y2="183.5" stroke="#b0c4de" stroke-width="1.5"/>
<line x1="129.4" y1="126.9" x2="96.8" y2="183.5" stroke="#b0c4de" stroke-width="1.5"/>
<line x1="129.4" y1="126.9" x2="227.4" y2="70.4" stroke="#b0c4de" stroke-width="1.5"/>
<line x1="390.6" y1="353.1" x2="423.2" y2="296.5" stroke="#b0c4de" stroke-width="1.5"/>
<line x1="390.6" y1="353.1" x2="292.6" y2="409.6" stroke="#b0c4de" stroke-width="1.5"/>
<line x1="390.6" y1="353.1" x2="357.9" y2="296.5" stroke="#b0c4de" stroke-width="1.5"/>
<line x1="357.9" y1="296.5" x2="357.9" y2="183.5" stroke="#b0c4de" stroke-width="1.5"/>
<line x1="357.9" y1="296.5" x2="423.2" y2="296.5" stroke="#b0c4de" stroke-width="1.5"/>
<line x1="357.9" y1="296.5" x2="260.0" y2="353.1" stroke="#b0c4de" stroke-width="1.5"/>
<line x1="162.1" y1="296.5" x2="162.1" y2="183.5" stroke="#b0c4de" stroke-width="1.5"/>
<line x1="162.1" y1="296.5" x2="260.0" y2="353.1" stroke="#b0c4de" stroke-width="1.5"/>
<line x1="162.1" y1="296.5" x2="129.4" y2="353.1" stroke="#b0c4de" stroke-width="1.5"/>
<line x1="357.9" y1="183.5" x2="390.6" y2="126.9" stroke="#b0c4de" stroke-width="1.5"/>
<line x1="357.9" y1="183.5" x2="260.0" y2="126.9" stroke="#b0c4de" stroke-width="1.5"/>
<line x1="357.9" y1="183.5" x2="357.9" y2="296.5" stroke="#b0c4de" stroke-width="1.5"/>
<line x1="260.0" y1="126.9" x2="357.9" y2="183.5" stroke="#b0c4de" stroke-width="1.5"/>
<line x1="260.0" y1="126.9" x2="162.1" y2="183.5" stroke="#b0c4de" stroke-width="1.5"/>
<line x1="260.0" y1="126.9" x2="227.4" y2="70.4" stroke="#b0c4de" stroke-width="1.5"/>
<line x1="390.6" y1="126.9" x2="423.2" y2="183.5" stroke="#b0c4de" stroke-width="1.5"/>
<line x1="357.9" y1="183.5" x2="423.2" y2="183.5" stroke="#b0c4de" stroke-width="1.5"/>
<line x1="423.2" y1="296.5" x2="423.2" y2="183.5" stroke="#b0c4de" stroke-width="1.5"/>
<line x1="227.4" y1="409.6" x2="292.6" y2="409.6" stroke="#b0c4de" stroke-width="1.5"/>
<line x1="227.4" y1="409.6" x2="260.0" y2="353.1" stroke="#b0c4de" stroke-width="1.5"/>
<line x1="227.4" y1="409.6" x2="129.4" y2="353.1" stroke="#b0c4de" stroke-width="1.5"/>
<line x1="96.8" y1="296.5" x2="96.8" y2="183.5" stroke="#b0c4de" stroke-width="1.5"/>
<line x1="96.8" y1="296.5" x2="129.4" y2="353.1" stroke="#b0c4de" stroke-width="1.5"/>
<line x1="260.0" y1="353.1" x2="292.6" y2="409.6" stroke="#b0c4de" stroke-width="1.5"/>
<line x1="260.0" y1="353.1" x2="357.9" y2="296.5" stroke="#b0c4de" stroke-width="1.5"/>
<circle cx="292.6" cy="70.4" r="11" fill="#27ae60" stroke="white" stroke-width="1.5"/>
<circle cx="162.1" cy="183.5" r="11" fill="#27ae60" stroke="white" stroke-width="1.5"/>
<circle cx="162.1" cy="296.5" r="11" fill="#27ae60" stroke="white" stroke-width="1.5"/>
<circle cx="129.4" cy="126.9" r="11" fill="#27ae60" stroke="white" stroke-width="1.5"/>
<circle cx="390.6" cy="353.1" r="11" fill="#27ae60" stroke="white" stroke-width="1.5"/>
<circle cx="357.9" cy="296.5" r="11" fill="#27ae60" stroke="white" stroke-width="1.5"/>
<circle cx="162.1" cy="296.5" r="11" fill="#27ae60" stroke="white" stroke-width="1.5"/>
<circle cx="357.9" cy="183.5" r="11" fill="#27ae60" stroke="white" stroke-width="1.5"/>
<circle cx="260.0" cy="126.9" r="11" fill="#27ae60" stroke="white" stroke-width="1.5"/>
<circle cx="390.6" cy="126.9" r="11" fill="#27ae60" stroke="white" stroke-width="1.5"/>
<circle cx="357.9" cy="183.5" r="11" fill="#27ae60" stroke="white" stroke-width="1.5"/>
<circle cx="423.2" cy="296.5" r="11" fill="#27ae60" stroke="white" stroke-width="1.5"/>
<circle cx="227.4" cy="409.6" r="11" fill="#27ae60" stroke="white" stroke-width="1.5"/>
<circle cx="96.8" cy="296.5" r="11" fill="#27ae60" stroke="white" stroke-width="1.5"/>
<circle cx="162.1" cy="183.5" r="11" fill="#27ae60" stroke="white" stroke-width="1.5"/>
<circle cx="96.8" cy="183.5" r="11" fill="#27ae60" stroke="white" stroke-width="1.5"/>
<circle cx="423.2" cy="183.5" r="11" fill="#27ae60" stroke="white" stroke-width="1.5"/>
<circle cx="260.0" cy="353.1" r="11" fill="#27ae60" stroke="white" stroke-width="1.5"/>
<circle cx="227.4" cy="70.4" r="11" fill="#27ae60" stroke="white" stroke-width="1.5"/>
<circle cx="292.6" cy="409.6" r="11" fill="#27ae60" stroke="white" stroke-width="1.5"/>
<circle cx="260.0" cy="126.9" r="11" fill="#27ae60" stroke="white" stroke-width="1.5"/>
<circle cx="260.0" cy="353.1" r="11" fill="#27ae60" stroke="white" stroke-width="1.5"/>
<circle cx="357.9" cy="296.5" r="11" fill="#27ae60" stroke="white" stroke-width="1.5"/>
<circle cx="129.4" cy="353.1" r="11" fill="#27ae60" stroke="white" stroke-width="1.5"/>
<rect x="12" y="12" width="170" height="110" rx="6" fill="white" stroke="#ccc" stroke-width="1"/>
<text x="22" y="34" font-size="13" font-family="Arial" font-weight="bold" fill="#1a252f">Permutohedron A₃</text>
<text x="22" y="52" font-size="11" font-family="Arial" fill="#555">(SU(4) saddle structure)</text>
<circle cx="32" cy="74" r="6" fill="#27ae60"/>
<text x="45" y="78" font-size="11" font-family="Arial" fill="#333">Balanced split Φ=0 (dominant)</text>
<circle cx="32" cy="92" r="6" fill="#e67e22"/>
<text x="45" y="96" font-size="11" font-family="Arial" fill="#333">Near-balanced Φ=±2</text>
<circle cx="32" cy="110" r="6" fill="#c0392b"/>
<text x="45" y="114" font-size="11" font-family="Arial" fill="#333">Endpoint Φ=±4 (suppressed)</text>
<text x="260" y="468" font-size="11" font-family="Arial" fill="#777" text-anchor="middle">24 vertices = all orderings of (θ₁,θ₂,θ₃,θ₄) ∈ {0,π}⁴  |  edges = Weyl S₄ transpositions</text>
</svg>